<?xml version="1.0" standalone="no"?>
<!DOCTYPE svg PUBLIC "-//W3C//DTD SVG 20010904//EN"
 "http://www.w3.org/TR/2001/REC-SVG-20010904/DTD/svg10.dtd">
<svg version="1.0" xmlns="http://www.w3.org/2000/svg"
 width="512.000000pt" height="512.000000pt" viewBox="0 0 512.000000 512.000000"
 preserveAspectRatio="xMidYMid meet">
<metadata>
Created by potrace 1.11, written by Peter Selinger 2001-2013
</metadata>
<g transform="translate(0.000000,512.000000) scale(0.100000,-0.100000)"
fill="#000000" stroke="none">
<path d="M0 5022 l0 -97 82 -85 c79 -82 329 -346 379 -401 41 -46 290 -310
385 -409 50 -52 113 -119 140 -149 27 -30 84 -91 127 -135 74 -77 77 -83 71
-116 -4 -19 -16 -97 -28 -173 l-22 -138 -124 96 c-69 53 -141 109 -160 123
-19 15 -68 54 -110 86 -41 33 -105 84 -142 113 -38 29 -101 79 -140 111 -40
31 -79 62 -88 69 -33 25 -179 140 -240 188 -76 60 -111 85 -122 85 -5 0 -8
-129 -7 -287 l0 -288 61 -30 c34 -16 114 -59 177 -95 64 -37 154 -87 201 -112
104 -56 496 -273 530 -293 14 -9 51 -29 82 -45 l57 -30 -6 -112 c-3 -62 -6
-114 -7 -115 -1 -2 -321 123 -351 137 -18 8 -242 97 -619 244 -64 25 -119 46
-121 46 -3 0 -5 -94 -5 -209 l0 -208 43 -6 c23 -3 155 -33 292 -65 138 -33
363 -86 502 -118 l251 -58 6 -29 c11 -56 7 -167 -6 -167 -7 0 -125 11 -263 25
-137 13 -365 36 -505 49 -140 14 -270 28 -287 30 l-33 5 0 -201 0 -201 148 7
c81 3 327 17 547 30 220 13 403 21 407 17 3 -3 10 -61 13 -129 7 -119 7 -122
-13 -122 -20 0 -96 -17 -282 -61 -47 -11 -173 -40 -280 -64 -107 -24 -262 -60
-345 -79 -82 -20 -160 -36 -172 -36 l-23 0 0 -211 0 -211 27 7 c14 3 101 36
192 72 91 36 330 130 531 209 201 79 373 148 382 154 20 11 21 9 43 -115 9
-49 19 -105 22 -123 5 -26 2 -32 -12 -32 -10 0 -26 -6 -34 -13 -30 -25 -1077
-657 -1125 -678 l-26 -12 0 -334 0 -333 30 0 c17 0 30 4 30 8 0 5 51 53 112
107 62 55 127 111 143 126 33 30 203 177 250 217 17 14 50 44 75 66 25 23 79
70 119 106 41 36 79 70 85 75 6 6 76 66 156 135 80 69 158 136 174 150 16 14
34 30 40 35 7 6 26 22 42 38 l31 28 28 -73 c15 -40 50 -117 77 -171 27 -55 45
-97 41 -94 -5 3 -20 -11 -33 -31 -14 -20 -27 -39 -30 -42 -3 -3 -21 -25 -40
-50 -19 -25 -37 -47 -40 -50 -3 -3 -25 -32 -50 -65 -25 -33 -47 -62 -50 -65
-7 -7 -81 -100 -185 -235 -47 -60 -98 -126 -113 -145 -60 -74 -71 -70 208 -70
244 0 249 0 255 21 6 18 32 66 160 294 27 48 69 126 94 173 l12 23 51 -43 c27
-24 74 -61 102 -83 59 -45 58 -31 9 -142 -13 -28 -23 -57 -23 -62 0 -6 -4 -19
-10 -29 -16 -28 -50 -121 -50 -137 0 -13 28 -15 175 -15 173 0 175 0 179 23 3
12 12 52 20 88 9 36 16 75 16 86 l0 21 98 -24 c53 -13 114 -26 135 -29 32 -5
36 -9 33 -28 -3 -12 -8 -48 -11 -80 l-6 -57 176 0 177 0 -5 74 -6 75 27 5 c15
3 52 8 82 11 30 4 97 17 148 31 99 25 123 29 120 16 -1 -4 9 -53 23 -109 l24
-103 208 0 c114 0 207 2 207 4 0 8 -94 226 -129 300 l-39 81 46 39 c26 22 76
71 111 108 62 66 89 84 77 53 -3 -8 -2 -15 2 -15 4 0 23 -26 41 -57 19 -32 58
-94 86 -138 143 -221 197 -309 212 -340 l17 -35 333 0 c202 0 333 4 333 9 0
11 -65 84 -195 221 -45 47 -110 116 -146 154 -35 38 -80 86 -99 106 -49 51
-278 295 -335 357 -26 29 -51 50 -55 48 -19 -12 -15 25 10 85 14 36 37 95 50
132 l23 67 27 -22 c14 -12 41 -33 60 -47 18 -14 41 -32 50 -40 10 -8 51 -40
90 -70 61 -47 242 -188 370 -290 19 -15 89 -70 155 -121 66 -51 122 -96 125
-99 3 -3 43 -35 90 -70 46 -36 91 -70 100 -77 8 -7 49 -39 91 -73 42 -33 82
-60 88 -60 8 0 11 85 11 295 0 282 -1 295 -19 295 -10 0 -24 7 -31 15 -7 8
-16 15 -20 15 -5 0 -39 17 -77 38 -37 22 -97 55 -133 74 -36 19 -123 68 -195
108 -71 40 -161 90 -200 110 -38 21 -99 54 -135 75 -36 20 -74 41 -85 46 -11
5 -36 19 -55 30 -19 12 -73 42 -120 67 -47 25 -88 50 -91 55 -3 5 -10 8 -15 8
-12 -1 -12 -2 5 102 8 48 17 90 21 92 4 3 52 -14 106 -36 54 -22 115 -46 134
-53 19 -7 161 -64 315 -125 154 -62 346 -139 428 -172 81 -32 152 -59 157 -59
6 0 10 79 10 215 l0 215 -24 0 c-22 0 -137 25 -558 125 -358 84 -498 115 -516
115 -25 0 -28 24 -16 139 6 50 10 61 23 56 15 -5 235 -28 761 -80 135 -14 264
-27 287 -30 l43 -6 0 211 c0 196 -1 211 -17 206 -10 -2 -72 -7 -138 -11 -155
-8 -746 -43 -850 -51 -44 -3 -84 -8 -89 -11 -9 -6 -2 244 7 253 2 3 13 6 24 9
39 7 609 137 748 171 77 18 179 41 227 51 l88 18 0 212 c0 157 -3 213 -12 213
-11 0 -188 -70 -803 -316 -154 -61 -281 -111 -281 -110 -1 0 -4 66 -7 146 l-6
145 67 39 c37 21 199 118 360 215 370 222 364 218 447 265 39 22 72 44 73 48
2 4 9 8 15 8 6 0 18 6 26 14 9 8 40 26 69 41 l52 26 0 345 c0 289 -2 344 -14
344 -11 0 -150 -115 -214 -177 -7 -6 -34 -29 -60 -50 -25 -21 -64 -55 -85 -75
-21 -21 -41 -38 -44 -38 -2 0 -25 -20 -51 -44 -43 -40 -116 -104 -301 -265
-36 -31 -108 -94 -161 -141 -52 -47 -122 -109 -155 -137 l-60 -53 -18 103
c-11 56 -32 156 -47 221 l-28 119 51 66 c28 36 54 68 59 69 4 2 8 8 8 14 0 5
7 16 15 25 9 8 58 70 110 137 98 126 257 330 278 356 7 8 28 35 47 60 19 25
37 47 40 50 3 3 28 34 55 70 28 36 54 68 58 71 5 3 25 29 45 56 20 28 67 88
103 134 36 46 71 94 78 107 l12 22 -341 0 c-280 0 -340 -2 -340 -14 0 -12 -36
-80 -106 -201 -13 -22 -31 -56 -41 -75 -17 -34 -63 -118 -115 -210 -81 -143
-128 -231 -128 -240 0 -6 -4 -10 -10 -10 -5 0 -10 -6 -10 -14 0 -7 -6 -26 -14
-41 l-14 -26 -32 56 c-18 31 -60 93 -94 137 -33 45 -67 89 -75 100 -11 14 -11
21 -1 33 7 8 9 15 5 15 -4 0 -3 6 3 13 9 10 68 157 146 362 6 17 17 40 24 52
7 12 12 31 12 42 0 21 -4 21 -237 21 l-238 0 -29 -123 c-15 -67 -28 -130 -28
-139 1 -17 -2 -17 -36 -2 -62 27 -163 60 -238 78 l-72 18 9 36 c5 20 9 58 9
85 l0 47 -230 0 -231 0 5 -68 c3 -37 2 -72 -2 -78 -4 -5 -46 -15 -94 -22 -108
-15 -242 -53 -325 -92 -35 -16 -63 -28 -64 -27 -1 3 -7 26 -41 160 l-32 127
-269 0 -270 0 6 -33 c3 -18 21 -65 41 -105 19 -41 38 -83 42 -95 4 -12 21 -53
39 -92 58 -127 103 -230 110 -253 5 -18 -4 -40 -41 -95 -27 -40 -77 -128 -111
-197 -34 -69 -63 -117 -63 -108 0 9 -13 36 -28 60 -16 24 -57 89 -93 146 -35
56 -71 113 -79 127 -24 38 -208 327 -292 459 -43 67 -84 136 -92 154 l-15 32
-360 0 -361 0 0 -98z m2805 -248 c215 -35 392 -123 541 -269 316 -311 467
-826 499 -1702 l6 -152 -71 -74 c-259 -273 -737 -619 -1130 -817 l-60 -30
-112 56 c-421 211 -734 425 -1076 737 l-132 121 0 56 c0 104 21 435 35 570 51
460 160 819 325 1066 69 103 205 237 300 296 232 144 547 195 875 142z m-1409
-2480 c214 -187 480 -376 723 -513 l122 -69 -58 -27 c-225 -103 -772 -303
-794 -290 -4 3 -14 38 -23 77 -40 185 -73 461 -81 693 -3 83 -8 170 -10 194
-5 41 -4 43 12 29 10 -8 59 -50 109 -94z m2443 -81 c-12 -276 -47 -582 -86
-743 -19 -80 -86 -216 -158 -325 -93 -139 -282 -300 -430 -364 -83 -37 -212
-74 -320 -92 -105 -18 -147 -21 -330 -16 -157 4 -233 10 -301 25 -197 43 -347
110 -479 215 -72 57 -193 183 -184 191 2 2 36 13 74 26 39 12 149 52 245 87
756 280 1413 660 1879 1086 52 48 95 85 96 84 1 -1 -2 -79 -6 -174z"/>
<path d="M2425 4494 c-161 -33 -255 -69 -365 -139 -139 -89 -250 -215 -326
-370 -70 -144 -87 -223 -87 -400 0 -178 17 -258 87 -400 121 -245 313 -405
586 -487 85 -26 283 -35 386 -19 295 48 544 235 675 506 96 199 118 380 73
598 -73 355 -373 642 -738 706 -57 11 -249 13 -291 5z m220 -309 c89 -10 166
-31 250 -70 133 -60 219 -129 323 -257 72 -89 82 -123 82 -275 0 -125 -22
-218 -78 -333 -39 -81 -59 -108 -137 -185 -49 -49 -116 -105 -147 -124 -195
-114 -448 -132 -658 -48 -180 73 -338 228 -407 398 -57 141 -74 316 -44 452
11 52 19 62 44 58 5 -1 6 3 2 9 -11 17 92 136 169 196 81 64 195 124 281 149
64 19 221 44 245 39 8 -1 42 -6 75 -9z"/>
<path d="M2245 3565 c-52 -51 -16 -145 55 -145 37 0 90 47 90 80 0 78 -91 119
-145 65z"/>
<path d="M2756 3559 c-34 -40 -33 -74 3 -110 57 -56 141 -23 141 56 0 80 -93
115 -144 54z"/>
</g>
</svg>
